<svg width="48" height="48" version="1.1" xmlns="http://www.w3.org/2000/svg" desc="Created with imagetracer.js version 1.2.6" ><path fill="rgb(0,254,254)" stroke="rgb(0,254,254)" stroke-width="1" opacity="0.9176470588235294" d="M 3.5 4 L 44.5 4 L 46 5.5 L 46 34.5 L 44.5 36 L 28.5 36 L 28 40 Q 34 38 32 44 L 16.5 44 L 16 40 Q 22 42 20 36 L 3.5 36 L 2 34.5 L 2 5.5 L 3.5 4 Z M 6 8 L 6 32 L 42 32 L 42 8 L 6 8 Z " /><path fill="rgb(0,254,254)" stroke="rgb(0,254,254)" stroke-width="1" opacity="0.9176470588235294" d="M 24 11 L 28 12 L 24 29 L 20 28 L 24 11 Z " /><path fill="rgb(0,254,254)" stroke="rgb(0,254,254)" stroke-width="1" opacity="0.9176470588235294" d="M 16.5 13 L 19 15.5 L 15 19.5 L 19 24.5 L 16.5 27 L 10 20.5 L 16.5 13 Z " /><path fill="rgb(0,254,254)" stroke="rgb(0,254,254)" stroke-width="1" opacity="0.9176470588235294" d="M 31.5 13 L 38 20.5 L 31.5 27 L 29 24.5 L 33 19.5 L 29 15.5 L 31.5 13 Z " /><path fill="rgb(0,0,0)" stroke="rgb(0,0,0)" stroke-width="1" opacity="0" d="M 0 0 L 48 0 L 48 48 L 0 48 L 0 0 Z M 4 4 L 2 6 L 2 35 L 4 36 L 20 36 Q 22 42 16 40 L 17 44 L 32 44 Q 34 38 28 40 L 29 36 L 45 36 L 46 35 L 46 6 L 45 4 L 4 4 Z " /><path fill="rgb(0,0,0)" stroke="rgb(0,0,0)" stroke-width="1" opacity="0" d="M 6 8 L 42 8 L 42 32 L 6 32 L 6 8 Z M 24 11 L 20 28 L 24 29 L 28 12 L 24 11 Z M 17 13 L 10 21 L 17 27 L 19 25 L 15 20 L 19 16 L 17 13 Z M 32 13 L 29 16 L 33 20 L 29 25 L 32 27 L 38 21 L 32 13 Z " /></svg>